<svg xmlns="http://www.w3.org/2000/svg" width="1600" height="900" viewBox="0 0 1600 900"><defs><linearGradient id="bg" x1="0" y1="0" x2="1" y2="1"><stop offset="0%" stop-color="#0c4a6e"/><stop offset="100%" stop-color="#0891b2"/></linearGradient></defs><rect width="1600" height="900" rx="36" fill="url(#bg)"/><rect x="72" y="72" width="1456" height="756" rx="28" fill="rgba(255,255,255,0.08)" stroke="rgba(255,255,255,0.18)"/><text x="110" y="145" fill="#cffafe" font-size="28" font-family="Segoe UI, Arial, sans-serif">AI Video Glossary</text><text x="110" y="220" fill="white" font-size="64" font-weight="700" font-family="Segoe UI, Arial, sans-serif">handheld</text><text x="110" y="270" fill="#cffafe" font-size="30" font-family="Segoe UI, Arial, sans-serif">핸드헬드</text><foreignObject x="110" y="320" width="560" height="170"><div xmlns="http://www.w3.org/1999/xhtml" style="font-family: Segoe UI, Arial, sans-serif; font-size: 26px; line-height: 1.45; color: white;">손에 든 듯한 미세한 흔들림이 살아 있는 움직임입니다.</div></foreignObject><rect x="830" y="180" width="600" height="520" rx="30" fill="rgba(255,255,255,0.10)" stroke="rgba(255,255,255,0.35)"/><circle cx="1140" cy="360" r="46" fill="white"/><rect x="1110" y="410" width="60" height="170" rx="22" fill="white"/><rect x="930" y="610" width="90" height="44" rx="12" fill="rgba(255,255,255,0.20)" stroke="white"/><circle cx="948" cy="660" r="18" fill="white"/><circle cx="1002" cy="660" r="18" fill="white"/><path d="M960 620 C1000 600 1040 650 1090 620 C1130 594 1170 652 1210 622" stroke="#0891b2" stroke-width="10" fill="none"/><text x="850" y="760" fill="#cffafe" font-size="24" font-family="Segoe UI, Arial, sans-serif">Movement path reference</text></svg>
